<svg class="svg-inline--fa" viewBox="0 0 24 25" fill="none" xmlns="http://www.w3.org/2000/svg">
    <g clip-path="url(#clip0_494_3738)">
    <path d="M22.2 0.571411H1.8C1.32261 0.571411 0.864773 0.808464 0.527208 1.23042C0.189642 1.65238 0 2.22467 0 2.82141L0 17.8214C0 18.4181 0.189642 18.9904 0.527208 19.4124C0.864773 19.8344 1.32261 20.0714 1.8 20.0714H10.8V21.5714H4.2C4.04087 21.5714 3.88826 21.6504 3.77574 21.7911C3.66321 21.9317 3.6 22.1225 3.6 22.3214V23.8214C3.6 24.0203 3.66321 24.2111 3.77574 24.3517C3.88826 24.4924 4.04087 24.5714 4.2 24.5714H19.8C19.9591 24.5714 20.1117 24.4924 20.2243 24.3517C20.3368 24.2111 20.4 24.0203 20.4 23.8214V22.3214C20.4 22.1225 20.3368 21.9317 20.2243 21.7911C20.1117 21.6504 19.9591 21.5714 19.8 21.5714H13.2V20.0714H22.2C22.6774 20.0714 23.1352 19.8344 23.4728 19.4124C23.8104 18.9904 24 18.4181 24 17.8214V2.82141C24 2.22467 23.8104 1.65238 23.4728 1.23042C23.1352 0.808464 22.6774 0.571411 22.2 0.571411ZM21.6 17.0714H2.4V3.57141H21.6V17.0714Z" fill="currentColor"/>
    </g>
    <defs>
    <clipPath id="clip0_494_3738">
    <rect width="24" height="24" fill="white" transform="translate(0 0.571411)"/>
    </clipPath>
    </defs>
    </svg>